<svg xmlns="http://www.w3.org/2000/svg" width="410" height="125" display="block">
  <g fill-rule="evenodd">
    <path d="M5.2 53v43.8h89.6V9.2H5.2V53m100 0v43.8h87.6V9.2h-87.6V53m100 0v43.8h87.6V9.2h-87.6V53m100 0v43.8h75.6v-12h12V21.2h-12v-12h-75.6V53m-224 0v30.2H56.8v-24H43.2v24H18.8V22.8h62.4V53m98-19v11.2h-12v13.6h12v24.4h-60.4V22.8h60.4V34m64 .8v12h13.6v-24h22.4v60.4h-10.4v-24h-13.6v24h-10.4v-24h-13.6v24h-12.4V22.8h24.4v12m124-6v6h12v36.4h-12v12h-48.4V22.8h48.4v6M43.2 40v6.8h13.6V33.2H43.2V40m98 0v6.8h13.6V33.2h-13.6V40m200 12v18.8h13.6V33.2h-13.6V52m-200 12v6.8h13.6V57.2h-13.6V64"/>
    <path d="M5.2 53v43.8h89.6V9.2H5.2V53m100 0v43.8h87.6V9.2h-87.6V53m100 0v43.8h87.6V9.2h-87.6V53m100 0v43.8h75.6v-12h12V21.2h-12v-12h-75.6V53m-224 0v30.2H56.8v-24H43.2v24H18.8V22.8h62.4V53m98-19v11.2h-12v13.6h12v24.4h-60.4V22.8h60.4V34m64 .8v12h13.6v-24h22.4v60.4h-10.4v-24h-13.6v24h-10.4v-24h-13.6v24h-12.4V22.8h24.4v12m124-6v6h12v36.4h-12v12h-48.4V22.8h48.4v6M43.2 40v6.8h13.6V33.2H43.2V40m98 0v6.8h13.6V33.2h-13.6V40m200 12v18.8h13.6V33.2h-13.6V52m-200 12v6.8h13.6V57.2h-13.6V64"/>
    <path d="M5.2 53v43.8h89.6V9.2H5.2V53m100 0v43.8h87.6V9.2h-87.6V53m100 0v43.8h87.6V9.2h-87.6V53m100 0v43.8h75.6v-12h12V21.2h-12v-12h-75.6V53m-224 0v30.2H56.8v-24H43.2v24H18.8V22.8h62.4V53m98-19v11.2h-12v13.6h12v24.4h-60.4V22.8h60.4V34m64 .8v12h13.6v-24h22.4v60.4h-10.4v-24h-13.6v24h-10.4v-24h-13.6v24h-12.4V22.8h24.4v12m124-6v6h12v36.4h-12v12h-48.4V22.8h48.4v6M43.2 40v6.8h13.6V33.2H43.2V40m98 0v6.8h13.6V33.2h-13.6V40m200 12v18.8h13.6V33.2h-13.6V52m-200 12v6.8h13.6V57.2h-13.6V64"/>
    <path d="M5.2 53v43.8h89.6V9.2H5.2V53m100 0v43.8h87.6V9.2h-87.6V53m100 0v43.8h87.6V9.2h-87.6V53m100 0v43.8h75.6v-12h12V21.2h-12v-12h-75.6V53m-224 0v30.2H56.8v-24H43.2v24H18.8V22.8h62.4V53m98-19v11.2h-12v13.6h12v24.4h-60.4V22.8h60.4V34m64 .8v12h13.6v-24h22.4v60.4h-10.4v-24h-13.6v24h-10.4v-24h-13.6v24h-12.4V22.8h24.4v12m124-6v6h12v36.4h-12v12h-48.4V22.8h48.4v6M43.2 40v6.8h13.6V33.2H43.2V40m98 0v6.8h13.6V33.2h-13.6V40m200 12v18.8h13.6V33.2h-13.6V52m-200 12v6.8h13.6V57.2h-13.6V64"/>
    <path d="M5.2 53v43.8h89.6V9.2H5.2V53m100 0v43.8h87.6V9.2h-87.6V53m100 0v43.8h87.6V9.2h-87.6V53m100 0v43.8h75.6v-12h12V21.2h-12v-12h-75.6V53m-224 0v30.2H56.8v-24H43.2v24H18.8V22.8h62.4V53m98-19v11.2h-12v13.6h12v24.4h-60.4V22.8h60.4V34m64 .8v12h13.6v-24h22.4v60.4h-10.4v-24h-13.6v24h-10.4v-24h-13.6v24h-12.4V22.8h24.4v12m124-6v6h12v36.4h-12v12h-48.4V22.8h48.4v6M43.2 40v6.8h13.6V33.2H43.2V40m98 0v6.8h13.6V33.2h-13.6V40m200 12v18.8h13.6V33.2h-13.6V52m-200 12v6.8h13.6V57.2h-13.6V64"/>
  </g>
</svg>
